<?xml version="1.0" encoding="iso-8859-1"?>
<!-- Generator: Adobe Illustrator 19.0.0, SVG Export Plug-In . SVG Version: 6.00 Build 0)  -->
<svg xmlns="http://www.w3.org/2000/svg" xmlns:xlink="http://www.w3.org/1999/xlink" version="1.1" id="Capa_1" x="0px" y="0px" viewBox="0 0 411.351 411.351" style="enable-background:new 0 0 411.351 411.351;" xml:space="preserve" width="512px" height="512px">
<g>
	<g>
		<path d="M393.876,215.751c-2.4,0-4.4,2-4.4,4.4c-0.4,50.4-21.2,96-54.4,129.2c-33.2,32.8-78.8,53.2-129.6,53.2    c-50.8,0-96.8-20.4-130-54c-32.8-33.2-53.6-78.8-53.6-129.6s20.4-96.8,54-130c30.4-30.4,71.2-50,116.4-53.2l-38,29.6    c-2,1.6-2.4,4.4-0.8,6c1.6,2,4.4,2.4,6,0.8l49.2-38c0.4-0.4,0.4-0.4,0.4-0.8l0.4-0.4c0-0.4,0-0.4,0.4-0.8c0-0.4,0-0.4,0-0.8    c0,0,0,0,0-0.4c0-0.4,0-0.4,0-0.8c0-0.4,0-0.4,0-0.8c0,0,0,0,0-0.4c0-0.4-0.4-0.4-0.4-0.8v-0.4c-0.4-0.4-0.4-0.4-0.8-0.8l-0.4-0.4    l-52-26c-2-1.2-4.8-0.4-6,2c-1.2,2-0.4,4.8,2,6l37.2,18.4c-46.4,4-88,24.4-119.2,55.6c-35.6,34.8-57.2,83.2-57.2,136.4    s21.6,101.2,56.4,136.4c35.2,34.4,83.2,56,136.4,56c52.8,0,100.8-21.2,135.6-56c34.8-34.4,56.4-82.4,56.8-135.2    C398.276,217.751,396.276,215.751,393.876,215.751z" fill="#FFFFFF"/>
	</g>
</g>
<g>
	<g>
		<path d="M289.076,242.951l-16.4,0.4v-30c0-2.4-0.4-4.4-1.2-5.2c-0.8-0.8-2-1.2-3.6-1.2c-2.8,0-4.4,2.4-4.4,7.2v29.6l-44.8,0.4    l15.6-30l25.2-45.2c0.8-1.6,1.2-2.4,1.2-3.2c0-1.2-0.8-2-1.6-2.8c-0.8-0.8-2-1.2-3.6-1.2c-2,0-4,1.6-5.6,4.4    c-11.6,23.2-24.8,48-39.2,74c-2,2-2.8,4.4-2.8,6.4c0,3.6,2.4,5.6,7.2,5.6c2.8,0,10.4,0,22.4-0.4c12,0,20.4,0,26,0    c0,2.8,0,6.4,0,10.8c0,4.4,0,7.6,0,9.6c0,4,1.6,6,4.8,6c2.8,0,4-2,4-5.6v-20.8h17.6c3.2,0,4.8-1.6,4.8-4.8    C294.676,244.151,292.676,242.951,289.076,242.951z" fill="#FFFFFF"/>
	</g>
</g>
<g>
	<g>
		<path d="M186.676,268.551c-10.8,0.4-18.8,0.4-24,0.4c-10.4,0-21.6,0-34,0l33.6-33.2c1.6-1.6,4-4.4,8-8.4s6.4-6.8,7.6-8.4    c1.2-1.6,3.2-4,5.2-7.2s3.6-6,4.4-8.8c0.8-2.8,1.2-6,1.2-9.6c0-10-3.6-18-10.8-24.4c-7.2-6.4-16-9.6-26-9.6    c-5.6,0-11.2,1.2-16.8,4c-5.6,2.8-10.4,6-14.4,10c-2.4,2.4-3.6,4.4-3.6,6.4c0,1.2,0.4,2.4,1.2,3.2c0.8,0.8,2,1.2,3.2,1.2    c0.4,0,0.8,0,1.2,0c0.4,0,0.8,0,1.2-0.4c0.4,0,0.8-0.4,0.8-0.4c0.4,0,0.4-0.4,0.8-0.8l0.8-0.8l0.8-0.8l0.8-0.8    c7.6-7.6,15.6-11.2,24-11.2c8,0,14.8,2.4,20,7.2c5.2,4.8,8,10.8,8,17.6c0,2-0.4,3.6-0.4,5.6c0,1.6-0.8,3.2-2,5.2    c-1.2,2-2,3.6-2.8,4.8c-0.8,1.2-2,3.2-4,5.2c-1.6,2-3.2,3.6-4,4.4c-0.8,0.8-2.4,2.4-4.4,4.8c-2,2-3.6,3.6-4,4.4    c-11.6,12-23.2,23.6-35.6,35.2c-3.6,3.6-5.2,6.4-5.2,8.4c0,4,2,6,6,6h40.8c3.2,0,7.2,0,12,0s8,0,9.6,0c4,0,6-1.6,6-4.8    C191.876,270.151,190.276,268.551,186.676,268.551z" fill="#FFFFFF"/>
	</g>
</g>
<g>
</g>
<g>
</g>
<g>
</g>
<g>
</g>
<g>
</g>
<g>
</g>
<g>
</g>
<g>
</g>
<g>
</g>
<g>
</g>
<g>
</g>
<g>
</g>
<g>
</g>
<g>
</g>
<g>
</g>
</svg>
