<?xml version="1.0" encoding="iso-8859-1"?>
<!-- Generator: Adobe Illustrator 19.0.0, SVG Export Plug-In . SVG Version: 6.00 Build 0)  -->
<svg xmlns="http://www.w3.org/2000/svg" xmlns:xlink="http://www.w3.org/1999/xlink" version="1.1" id="Capa_1" x="0px" y="0px" viewBox="0 0 512.001 512.001" style="enable-background:new 0 0 512.001 512.001;" xml:space="preserve" width="512px" height="512px">
<g>
	<g>
		<path d="M255.755,163.945c-34.902,54.209-57.763,101.077-57.763,119.052c0,12.406,3.944,23.901,10.627,33.325    c3.412-18.148,19.448-45.175,33.156-65.773c3.174-4.77,8.489-7.619,14.219-7.621c0.002,0,0.004,0,0.005,0    c5.729,0,11.044,2.847,14.221,7.615c13.575,20.397,29.434,47.095,33.06,65.235c6.45-9.32,10.24-20.614,10.24-32.781    C313.518,265.022,290.655,218.153,255.755,163.945z" fill="#b0b7d1"/>
	</g>
</g>
<g>
	<g>
		<path d="M255.999,284.112c-12.963,21.515-18.042,34.782-18.042,38.607c0,9.92,8.05,17.994,17.96,18.039    c0.109,0,0.216-0.007,0.325-0.008c9.835-0.133,17.798-8.164,17.798-18.029C274.04,318.895,268.96,305.628,255.999,284.112z" fill="#b0b7d1"/>
	</g>
</g>
<g>
	<g>
		<path d="M499.656,226.172L285.839,12.355C277.871,4.388,267.279,0,256.011,0c-11.268,0-21.86,4.388-29.827,12.356L12.367,226.172    C4.399,234.14,0.011,244.732,0.011,256s4.388,21.86,12.356,29.828l213.816,213.816c7.967,7.967,18.561,12.356,29.827,12.356    c11.267,0,21.86-4.388,29.828-12.356l213.816-213.816C516.102,269.38,516.102,242.62,499.656,226.172z M241.081,77.428    c0.05-0.49,0.12-0.98,0.22-1.46c0.1-0.47,0.22-0.95,0.36-1.42c0.14-0.47,0.31-0.93,0.489-1.38c0.19-0.45,0.4-0.9,0.631-1.33    c0.229-0.43,0.479-0.86,0.75-1.26c0.279-0.41,0.569-0.81,0.88-1.19c0.31-0.38,0.64-0.75,0.989-1.09    c0.351-0.35,0.71-0.68,1.091-0.99c0.38-0.31,0.779-0.61,1.189-0.88c0.41-0.27,0.83-0.52,1.26-0.75c0.431-0.23,0.88-0.44,1.33-0.63    c0.45-0.18,0.91-0.35,1.38-0.49c0.471-0.14,0.95-0.26,1.42-0.36c0.49-0.1,0.971-0.17,1.461-0.22c0.979-0.1,1.971-0.1,2.95,0    c0.49,0.05,0.98,0.12,1.46,0.22c0.471,0.1,0.95,0.22,1.42,0.36c0.471,0.14,0.931,0.31,1.381,0.49c0.449,0.19,0.899,0.4,1.329,0.63    c0.431,0.23,0.86,0.48,1.261,0.75c0.41,0.27,0.81,0.57,1.189,0.88c0.38,0.31,0.75,0.64,1.09,0.99c0.351,0.34,0.681,0.71,0.99,1.09    c0.311,0.38,0.61,0.78,0.88,1.19c0.271,0.4,0.521,0.83,0.75,1.26c0.23,0.43,0.44,0.88,0.63,1.33c0.181,0.45,0.351,0.91,0.49,1.38    c0.141,0.47,0.271,0.95,0.36,1.42c0.1,0.48,0.17,0.97,0.22,1.46c0.05,0.49,0.08,0.99,0.08,1.47c0,0.49-0.03,0.99-0.08,1.48    c-0.05,0.49-0.12,0.97-0.22,1.46c-0.09,0.47-0.22,0.95-0.36,1.42c-0.14,0.47-0.31,0.93-0.49,1.38c-0.189,0.45-0.399,0.9-0.63,1.33    c-0.229,0.43-0.479,0.86-0.75,1.26c-0.27,0.41-0.569,0.81-0.88,1.19c-0.31,0.38-0.64,0.75-0.99,1.09    c-0.34,0.35-0.71,0.68-1.09,0.99c-0.38,0.31-0.779,0.6-1.189,0.88c-0.4,0.27-0.83,0.52-1.261,0.75    c-0.43,0.23-0.88,0.44-1.329,0.63c-0.45,0.18-0.91,0.35-1.381,0.49c-0.47,0.14-0.949,0.26-1.42,0.36    c-0.479,0.1-0.97,0.17-1.46,0.22c-0.489,0.05-0.989,0.07-1.47,0.07c-0.49,0-0.99-0.02-1.479-0.07    c-0.49-0.05-0.971-0.12-1.461-0.22c-0.47-0.1-0.949-0.22-1.42-0.36c-0.47-0.14-0.93-0.31-1.38-0.49    c-0.45-0.19-0.899-0.4-1.33-0.63c-0.43-0.23-0.85-0.48-1.26-0.75c-0.41-0.28-0.81-0.57-1.189-0.88    c-0.381-0.31-0.74-0.64-1.091-0.99c-0.35-0.34-0.68-0.71-0.989-1.09c-0.311-0.38-0.601-0.78-0.88-1.19    c-0.271-0.4-0.521-0.83-0.75-1.26c-0.23-0.43-0.44-0.88-0.631-1.33c-0.18-0.45-0.35-0.91-0.489-1.38    c-0.141-0.47-0.261-0.95-0.36-1.42c-0.1-0.49-0.17-0.97-0.22-1.46c-0.05-0.49-0.08-0.99-0.08-1.48    C241.001,78.419,241.031,77.918,241.081,77.428z M90.893,257.423c-0.05,0.49-0.12,0.98-0.22,1.46c-0.101,0.47-0.22,0.95-0.36,1.42    c-0.14,0.47-0.31,0.93-0.49,1.38c-0.189,0.45-0.399,0.9-0.63,1.33c-0.229,0.43-0.479,0.86-0.75,1.26    c-0.27,0.41-0.569,0.81-0.88,1.19c-0.31,0.38-0.64,0.75-0.99,1.09c-0.34,0.35-0.71,0.68-1.09,0.99s-0.779,0.6-1.189,0.88    c-0.4,0.27-0.83,0.52-1.261,0.75c-0.43,0.23-0.88,0.44-1.329,0.63c-0.45,0.18-0.91,0.35-1.381,0.49    c-0.47,0.14-0.949,0.26-1.42,0.36c-0.479,0.1-0.97,0.17-1.46,0.22c-0.489,0.05-0.989,0.07-1.47,0.07c-0.49,0-0.99-0.02-1.479-0.07    c-0.49-0.05-0.971-0.12-1.461-0.22c-0.47-0.1-0.949-0.22-1.42-0.36c-0.47-0.14-0.93-0.31-1.38-0.49    c-0.45-0.19-0.899-0.4-1.33-0.63c-0.43-0.23-0.85-0.48-1.26-0.75c-0.41-0.28-0.81-0.57-1.189-0.88    c-0.381-0.31-0.74-0.64-1.091-0.99c-0.35-0.34-0.68-0.71-0.989-1.09c-0.311-0.38-0.601-0.78-0.88-1.19    c-0.261-0.4-0.521-0.83-0.75-1.26c-0.23-0.43-0.44-0.88-0.631-1.33c-0.18-0.45-0.35-0.91-0.489-1.38    c-0.141-0.47-0.261-0.95-0.36-1.42c-0.1-0.48-0.17-0.97-0.22-1.46c-0.05-0.49-0.07-0.99-0.07-1.47c0-0.49,0.021-0.99,0.07-1.48    c0.05-0.49,0.12-0.98,0.22-1.46c0.1-0.47,0.22-0.95,0.36-1.42c0.14-0.47,0.31-0.93,0.489-1.38c0.19-0.45,0.4-0.9,0.631-1.33    c0.229-0.43,0.489-0.86,0.75-1.26c0.279-0.41,0.569-0.81,0.88-1.19c0.31-0.38,0.64-0.74,0.989-1.09    c0.351-0.35,0.71-0.68,1.091-0.99c0.38-0.31,0.779-0.61,1.189-0.88c0.41-0.27,0.83-0.52,1.26-0.75c0.431-0.23,0.88-0.44,1.33-0.63    c0.45-0.18,0.91-0.35,1.38-0.49c0.471-0.14,0.95-0.27,1.42-0.36c0.49-0.1,0.971-0.17,1.461-0.22c0.979-0.1,1.971-0.1,2.95,0    c0.49,0.05,0.98,0.12,1.46,0.22c0.471,0.09,0.95,0.22,1.42,0.36c0.471,0.14,0.931,0.31,1.381,0.49    c0.449,0.19,0.899,0.4,1.329,0.63c0.431,0.23,0.86,0.48,1.261,0.75c0.41,0.27,0.81,0.57,1.189,0.88c0.38,0.31,0.75,0.64,1.09,0.99    c0.351,0.35,0.681,0.71,0.99,1.09c0.311,0.38,0.61,0.78,0.88,1.19c0.271,0.4,0.521,0.83,0.75,1.26c0.23,0.43,0.44,0.88,0.63,1.33    c0.181,0.45,0.351,0.91,0.49,1.38c0.141,0.47,0.26,0.95,0.36,1.42c0.1,0.48,0.17,0.97,0.22,1.46c0.05,0.49,0.08,0.99,0.08,1.48    C90.973,256.433,90.943,256.933,90.893,257.423z M270.938,432.467c-0.05,0.49-0.12,0.98-0.22,1.46c-0.09,0.47-0.22,0.95-0.36,1.42    c-0.14,0.47-0.31,0.93-0.49,1.38c-0.189,0.45-0.399,0.9-0.63,1.33c-0.229,0.43-0.479,0.86-0.75,1.26    c-0.27,0.41-0.569,0.81-0.88,1.19c-0.31,0.38-0.64,0.74-0.99,1.09c-0.34,0.35-0.71,0.68-1.09,0.99    c-0.38,0.31-0.779,0.6-1.189,0.88c-0.4,0.27-0.83,0.52-1.261,0.75c-0.43,0.23-0.88,0.44-1.329,0.63    c-0.45,0.18-0.91,0.35-1.381,0.49c-0.47,0.14-0.949,0.27-1.42,0.36c-0.479,0.1-0.97,0.17-1.46,0.22    c-0.489,0.05-0.989,0.08-1.47,0.08c-0.49,0-0.99-0.03-1.479-0.08c-0.49-0.05-0.971-0.12-1.461-0.22    c-0.47-0.09-0.949-0.22-1.42-0.36c-0.47-0.14-0.93-0.31-1.38-0.49c-0.45-0.19-0.899-0.4-1.33-0.63c-0.43-0.23-0.85-0.48-1.26-0.75    c-0.41-0.28-0.81-0.57-1.189-0.88c-0.381-0.31-0.74-0.64-1.091-0.99c-0.35-0.35-0.68-0.71-0.989-1.09    c-0.311-0.38-0.601-0.78-0.88-1.19c-0.271-0.4-0.521-0.83-0.75-1.26c-0.23-0.43-0.44-0.88-0.631-1.33    c-0.18-0.45-0.35-0.91-0.489-1.38c-0.141-0.47-0.261-0.95-0.36-1.42c-0.1-0.48-0.17-0.97-0.22-1.46    c-0.05-0.49-0.08-0.99-0.08-1.48c0-0.48,0.03-0.98,0.08-1.47c0.05-0.49,0.12-0.98,0.22-1.46c0.1-0.47,0.22-0.95,0.36-1.42    c0.14-0.47,0.31-0.93,0.489-1.38c0.19-0.45,0.4-0.9,0.631-1.33c0.229-0.43,0.479-0.86,0.75-1.26c0.279-0.41,0.569-0.81,0.88-1.19    c0.31-0.38,0.64-0.74,0.989-1.09c0.351-0.35,0.71-0.68,1.091-0.99c0.38-0.31,0.779-0.6,1.189-0.88c0.41-0.27,0.83-0.52,1.26-0.75    c0.431-0.23,0.88-0.44,1.33-0.63c0.45-0.18,0.91-0.35,1.38-0.49c0.471-0.14,0.95-0.27,1.42-0.36c0.49-0.1,0.971-0.17,1.461-0.22    c0.979-0.1,1.97-0.1,2.95,0c0.49,0.05,0.98,0.12,1.46,0.22c0.471,0.09,0.95,0.22,1.42,0.36c0.471,0.14,0.931,0.31,1.381,0.49    c0.449,0.19,0.899,0.4,1.329,0.63c0.431,0.23,0.86,0.48,1.261,0.75c0.41,0.28,0.81,0.57,1.189,0.88c0.38,0.31,0.75,0.64,1.09,0.99    c0.351,0.35,0.681,0.71,0.99,1.09c0.311,0.38,0.61,0.78,0.88,1.19c0.271,0.4,0.521,0.83,0.75,1.26c0.23,0.43,0.44,0.88,0.63,1.33    c0.181,0.45,0.351,0.91,0.49,1.38c0.141,0.47,0.271,0.95,0.36,1.42c0.1,0.48,0.17,0.97,0.22,1.46s0.08,0.99,0.08,1.47    C271.018,431.477,270.989,431.977,270.938,432.467z M256.241,370.762c-0.082,0-0.162,0.006-0.243,0.006    c-0.027,0-0.054-0.002-0.081-0.002c-0.054,0-0.108,0.002-0.162,0.002c-48.397,0-87.771-39.374-87.771-87.771    c0-17.546,10.044-44.389,30.706-82.06c15.837-28.872,33.779-56.38,40.758-66.867c3.64-5.471,9.736-8.738,16.307-8.738    c6.571,0,12.667,3.267,16.308,8.739c6.979,10.485,24.92,37.992,40.757,66.865c20.661,37.67,30.706,64.513,30.706,82.06    C343.526,331.231,304.415,370.499,256.241,370.762z M447.983,257.423c-0.05,0.49-0.12,0.98-0.22,1.46    c-0.09,0.47-0.22,0.95-0.36,1.42c-0.14,0.47-0.31,0.93-0.49,1.38c-0.189,0.45-0.399,0.9-0.63,1.33    c-0.229,0.43-0.479,0.86-0.75,1.26c-0.27,0.41-0.569,0.81-0.88,1.19c-0.31,0.38-0.64,0.75-0.99,1.09    c-0.34,0.35-0.71,0.68-1.09,0.99s-0.779,0.6-1.189,0.88c-0.4,0.27-0.83,0.52-1.261,0.75c-0.43,0.23-0.88,0.44-1.329,0.63    c-0.45,0.18-0.91,0.35-1.381,0.49c-0.47,0.14-0.949,0.27-1.42,0.36c-0.479,0.1-0.97,0.17-1.46,0.22    c-0.489,0.05-0.979,0.08-1.47,0.08c-0.491,0-0.99-0.03-1.479-0.08c-0.48-0.05-0.971-0.12-1.461-0.22    c-0.47-0.09-0.949-0.22-1.42-0.36c-0.47-0.14-0.93-0.31-1.38-0.49c-0.45-0.19-0.899-0.4-1.33-0.63    c-0.43-0.23-0.859-0.48-1.26-0.75c-0.41-0.28-0.81-0.57-1.189-0.88c-0.381-0.31-0.75-0.64-1.091-0.99    c-0.35-0.34-0.68-0.71-0.989-1.09c-0.311-0.38-0.61-0.78-0.88-1.19c-0.271-0.4-0.521-0.83-0.75-1.26    c-0.23-0.43-0.44-0.88-0.631-1.33c-0.18-0.45-0.35-0.91-0.489-1.38c-0.141-0.47-0.261-0.95-0.36-1.42    c-0.1-0.48-0.17-0.97-0.22-1.46c-0.05-0.49-0.07-0.99-0.07-1.47c0-0.49,0.021-0.99,0.07-1.48c0.05-0.49,0.12-0.98,0.22-1.46    c0.1-0.47,0.22-0.95,0.36-1.42c0.14-0.47,0.31-0.93,0.489-1.38c0.19-0.45,0.4-0.9,0.631-1.33c0.229-0.43,0.479-0.86,0.75-1.26    c0.27-0.41,0.569-0.81,0.88-1.19c0.31-0.38,0.64-0.75,0.989-1.09c0.341-0.35,0.71-0.68,1.091-0.99    c0.38-0.31,0.779-0.61,1.189-0.88c0.4-0.27,0.83-0.52,1.26-0.75c0.431-0.23,0.88-0.44,1.33-0.63c0.45-0.18,0.91-0.35,1.38-0.49    c0.471-0.14,0.95-0.27,1.42-0.36c0.49-0.1,0.98-0.17,1.461-0.22c0.979-0.1,1.971-0.1,2.95,0c0.49,0.05,0.98,0.12,1.46,0.22    c0.471,0.09,0.95,0.22,1.42,0.36c0.471,0.14,0.931,0.31,1.381,0.49c0.449,0.19,0.899,0.4,1.329,0.63    c0.431,0.23,0.86,0.48,1.261,0.75c0.41,0.27,0.81,0.57,1.189,0.88c0.38,0.31,0.75,0.64,1.09,0.99c0.351,0.34,0.681,0.71,0.99,1.09    c0.311,0.38,0.61,0.78,0.88,1.19c0.271,0.4,0.521,0.83,0.75,1.26c0.23,0.43,0.44,0.88,0.63,1.33c0.181,0.45,0.351,0.91,0.49,1.38    c0.141,0.47,0.271,0.95,0.36,1.42c0.1,0.48,0.17,0.97,0.22,1.46c0.05,0.49,0.08,0.99,0.08,1.48    C448.063,256.433,448.033,256.933,447.983,257.423z" fill="#b0b7d1"/>
	</g>
</g>
<g>
</g>
<g>
</g>
<g>
</g>
<g>
</g>
<g>
</g>
<g>
</g>
<g>
</g>
<g>
</g>
<g>
</g>
<g>
</g>
<g>
</g>
<g>
</g>
<g>
</g>
<g>
</g>
<g>
</g>
</svg>
